<svg width="305" height="278" viewBox="0 0 305 278" fill="none" xmlns="http://www.w3.org/2000/svg">
<path d="M0 32.4497C0 23.6131 7.16344 16.4497 16 16.4497H168.996C173.432 16.4497 177.669 14.6079 180.695 11.3641L186.553 5.08562C189.579 1.84181 193.816 0 198.252 0H289C297.837 0 305 7.16344 305 16V262C305 270.837 297.837 278 289 278H16C7.16344 278 0 270.837 0 262V32.4497Z" fill="#FFC04B"/>
<path d="M28.8725 54.9805C28.8095 54.3912 28.5442 53.9324 28.0763 53.604C27.613 53.2757 27.0103 53.1115 26.2681 53.1115C25.7463 53.1115 25.2988 53.1902 24.9254 53.3477C24.5521 53.5051 24.2665 53.7187 24.0685 53.9886C23.8706 54.2585 23.7694 54.5666 23.7649 54.913C23.7649 55.2009 23.8301 55.4505 23.9606 55.6619C24.0955 55.8733 24.2777 56.0533 24.5071 56.2017C24.7365 56.3456 24.9906 56.4671 25.2695 56.5661C25.5484 56.665 25.8295 56.7482 26.1129 56.8157L27.4084 57.1396C27.9302 57.261 28.4317 57.4252 28.913 57.6321C29.3988 57.839 29.8329 58.0999 30.2152 58.4148C30.602 58.7296 30.9079 59.1097 31.1328 59.555C31.3577 60.0004 31.4702 60.5221 31.4702 61.1204C31.4702 61.93 31.2633 62.643 30.8494 63.2592C30.4356 63.871 29.8374 64.35 29.0547 64.6964C28.2765 65.0382 27.3342 65.2092 26.2276 65.2092C25.1526 65.2092 24.2192 65.0427 23.4276 64.7099C22.6404 64.377 22.0241 63.8912 21.5788 63.2525C21.138 62.6138 20.8996 61.8356 20.8636 60.918H23.3263C23.3623 61.3993 23.5108 61.7996 23.7717 62.119C24.0326 62.4383 24.3722 62.6767 24.7905 62.8342C25.2133 62.9916 25.6856 63.0703 26.2074 63.0703C26.7517 63.0703 27.2285 62.9893 27.6378 62.8274C28.0516 62.661 28.3755 62.4316 28.6094 62.1392C28.8433 61.8423 28.9625 61.496 28.967 61.1001C28.9625 60.7403 28.8568 60.4434 28.6499 60.2095C28.4429 59.9711 28.1528 59.7732 27.7795 59.6158C27.4106 59.4538 26.9788 59.3099 26.484 59.1839L24.9119 58.7791C23.7739 58.4867 22.8743 58.0437 22.2131 57.4499C21.5563 56.8517 21.228 56.0578 21.228 55.0682C21.228 54.254 21.4484 53.5411 21.8892 52.9293C22.3345 52.3176 22.9395 51.843 23.7042 51.5057C24.4689 51.1638 25.3348 50.9929 26.3018 50.9929C27.2824 50.9929 28.1416 51.1638 28.8793 51.5057C29.6214 51.843 30.204 52.3131 30.6268 52.9158C31.0496 53.5141 31.2678 54.2023 31.2812 54.9805H28.8725ZM42.4124 51.1818H44.9156V60.2095C44.9156 61.1991 44.6817 62.0695 44.2139 62.8207C43.7506 63.5719 43.0983 64.1589 42.2572 64.5817C41.416 65 40.4332 65.2092 39.3087 65.2092C38.1797 65.2092 37.1946 65 36.3534 64.5817C35.5123 64.1589 34.8601 63.5719 34.3968 62.8207C33.9334 62.0695 33.7018 61.1991 33.7018 60.2095V51.1818H36.205V60.0004C36.205 60.5761 36.3309 61.0889 36.5828 61.5387C36.8392 61.9885 37.1991 62.3416 37.6624 62.598C38.1257 62.8499 38.6744 62.9759 39.3087 62.9759C39.9429 62.9759 40.4917 62.8499 40.955 62.598C41.4228 62.3416 41.7826 61.9885 42.0345 61.5387C42.2864 61.0889 42.4124 60.5761 42.4124 60.0004V51.1818ZM59.4641 55.8441H56.9407C56.8687 55.4303 56.736 55.0637 56.5426 54.7443C56.3492 54.4205 56.1085 54.1461 55.8207 53.9212C55.5328 53.6963 55.2044 53.5276 54.8356 53.4151C54.4712 53.2982 54.0777 53.2397 53.6548 53.2397C52.9036 53.2397 52.2379 53.4286 51.6577 53.8065C51.0774 54.1798 50.6231 54.7286 50.2947 55.4528C49.9664 56.1725 49.8022 57.0518 49.8022 58.0909C49.8022 59.148 49.9664 60.0386 50.2947 60.7628C50.6276 61.4825 51.0819 62.0268 51.6577 62.3956C52.2379 62.7599 52.9014 62.9421 53.6481 62.9421C54.0619 62.9421 54.4487 62.8881 54.8086 62.7802C55.1729 62.6677 55.4991 62.5036 55.7869 62.2876C56.0793 62.0717 56.3245 61.8063 56.5224 61.4915C56.7248 61.1766 56.8642 60.8168 56.9407 60.4119L59.4641 60.4254C59.3697 61.0821 59.165 61.6984 58.8501 62.2741C58.5398 62.8499 58.1327 63.3582 57.6289 63.799C57.1251 64.2353 56.5359 64.5772 55.8612 64.8246C55.1864 65.0675 54.4375 65.1889 53.6143 65.1889C52.3999 65.1889 51.3158 64.9078 50.3622 64.3455C49.4086 63.7833 48.6574 62.9714 48.1087 61.9098C47.5599 60.8482 47.2855 59.5753 47.2855 58.0909C47.2855 56.602 47.5621 55.3291 48.1154 54.272C48.6687 53.2105 49.4221 52.3986 50.3757 51.8363C51.3293 51.274 52.4089 50.9929 53.6143 50.9929C54.3835 50.9929 55.0987 51.1009 55.7599 51.3168C56.4212 51.5327 57.0104 51.8498 57.5277 52.2681C58.045 52.6819 58.4701 53.1902 58.8029 53.793C59.1403 54.3912 59.3607 55.0749 59.4641 55.8441ZM73.5843 55.8441H71.0608C70.9888 55.4303 70.8562 55.0637 70.6627 54.7443C70.4693 54.4205 70.2287 54.1461 69.9408 53.9212C69.6529 53.6963 69.3245 53.5276 68.9557 53.4151C68.5914 53.2982 68.1978 53.2397 67.7749 53.2397C67.0238 53.2397 66.358 53.4286 65.7778 53.8065C65.1975 54.1798 64.7432 54.7286 64.4149 55.4528C64.0865 56.1725 63.9223 57.0518 63.9223 58.0909C63.9223 59.148 64.0865 60.0386 64.4149 60.7628C64.7477 61.4825 65.202 62.0268 65.7778 62.3956C66.358 62.7599 67.0215 62.9421 67.7682 62.9421C68.182 62.9421 68.5689 62.8881 68.9287 62.7802C69.2931 62.6677 69.6192 62.5036 69.907 62.2876C70.1994 62.0717 70.4446 61.8063 70.6425 61.4915C70.8449 61.1766 70.9843 60.8168 71.0608 60.4119L73.5843 60.4254C73.4898 61.0821 73.2851 61.6984 72.9703 62.2741C72.6599 62.8499 72.2528 63.3582 71.749 63.799C71.2452 64.2353 70.656 64.5772 69.9813 64.8246C69.3066 65.0675 68.5576 65.1889 67.7345 65.1889C66.52 65.1889 65.4359 64.9078 64.4823 64.3455C63.5287 63.7833 62.7776 62.9714 62.2288 61.9098C61.68 60.8482 61.4056 59.5753 61.4056 58.0909C61.4056 56.602 61.6823 55.3291 62.2355 54.272C62.7888 53.2105 63.5422 52.3986 64.4958 51.8363C65.4494 51.274 66.529 50.9929 67.7345 50.9929C68.5036 50.9929 69.2188 51.1009 69.8801 51.3168C70.5413 51.5327 71.1305 51.8498 71.6478 52.2681C72.1651 52.6819 72.5902 53.1902 72.923 53.793C73.2604 54.3912 73.4808 55.0749 73.5843 55.8441ZM75.8766 65V51.1818H84.8638V53.2802H78.3798V57.0316H84.3983V59.13H78.3798V62.9016H84.9178V65H75.8766ZM94.9272 54.9805C94.8642 54.3912 94.5988 53.9324 94.131 53.604C93.6677 53.2757 93.065 53.1115 92.3228 53.1115C91.801 53.1115 91.3535 53.1902 90.9801 53.3477C90.6068 53.5051 90.3211 53.7187 90.1232 53.9886C89.9253 54.2585 89.8241 54.5666 89.8196 54.913C89.8196 55.2009 89.8848 55.4505 90.0153 55.6619C90.1502 55.8733 90.3324 56.0533 90.5618 56.2017C90.7912 56.3456 91.0453 56.4671 91.3242 56.5661C91.6031 56.665 91.8842 56.7482 92.1676 56.8157L93.4631 57.1396C93.9848 57.261 94.4864 57.4252 94.9677 57.6321C95.4535 57.839 95.8875 58.0999 96.2699 58.4148C96.6567 58.7296 96.9626 59.1097 97.1875 59.555C97.4124 60.0004 97.5249 60.5221 97.5249 61.1204C97.5249 61.93 97.3179 62.643 96.9041 63.2592C96.4903 63.871 95.892 64.35 95.1094 64.6964C94.3312 65.0382 93.3888 65.2092 92.2823 65.2092C91.2073 65.2092 90.2739 65.0427 89.4822 64.7099C88.6951 64.377 88.0788 63.8912 87.6335 63.2525C87.1927 62.6138 86.9543 61.8356 86.9183 60.918H89.381C89.417 61.3993 89.5655 61.7996 89.8263 62.119C90.0872 62.4383 90.4268 62.6767 90.8452 62.8342C91.268 62.9916 91.7403 63.0703 92.2621 63.0703C92.8063 63.0703 93.2831 62.9893 93.6925 62.8274C94.1063 62.661 94.4302 62.4316 94.6641 62.1392C94.898 61.8423 95.0172 61.496 95.0217 61.1001C95.0172 60.7403 94.9115 60.4434 94.7045 60.2095C94.4976 59.9711 94.2075 59.7732 93.8342 59.6158C93.4653 59.4538 93.0335 59.3099 92.5387 59.1839L90.9666 58.7791C89.8286 58.4867 88.929 58.0437 88.2678 57.4499C87.611 56.8517 87.2827 56.0578 87.2827 55.0682C87.2827 54.254 87.5031 53.5411 87.9439 52.9293C88.3892 52.3176 88.9942 51.843 89.7589 51.5057C90.5236 51.1638 91.3894 50.9929 92.3565 50.9929C93.3371 50.9929 94.1963 51.1638 94.9339 51.5057C95.6761 51.843 96.2586 52.3131 96.6815 52.9158C97.1043 53.5141 97.3224 54.2023 97.3359 54.9805H94.9272ZM107.266 54.9805C107.203 54.3912 106.938 53.9324 106.47 53.604C106.007 53.2757 105.404 53.1115 104.662 53.1115C104.14 53.1115 103.692 53.1902 103.319 53.3477C102.946 53.5051 102.66 53.7187 102.462 53.9886C102.264 54.2585 102.163 54.5666 102.158 54.913C102.158 55.2009 102.224 55.4505 102.354 55.6619C102.489 55.8733 102.671 56.0533 102.901 56.2017C103.13 56.3456 103.384 56.4671 103.663 56.5661C103.942 56.665 104.223 56.7482 104.506 56.8157L105.802 57.1396C106.324 57.261 106.825 57.4252 107.307 57.6321C107.792 57.839 108.226 58.0999 108.609 58.4148C108.996 58.7296 109.301 59.1097 109.526 59.555C109.751 60.0004 109.864 60.5221 109.864 61.1204C109.864 61.93 109.657 62.643 109.243 63.2592C108.829 63.871 108.231 64.35 107.448 64.6964C106.67 65.0382 105.728 65.2092 104.621 65.2092C103.546 65.2092 102.613 65.0427 101.821 64.7099C101.034 64.377 100.418 63.8912 99.9724 63.2525C99.5316 62.6138 99.2932 61.8356 99.2572 60.918H101.72C101.756 61.3993 101.904 61.7996 102.165 62.119C102.426 62.4383 102.766 62.6767 103.184 62.8342C103.607 62.9916 104.079 63.0703 104.601 63.0703C105.145 63.0703 105.622 62.9893 106.031 62.8274C106.445 62.661 106.769 62.4316 107.003 62.1392C107.237 61.8423 107.356 61.496 107.361 61.1001C107.356 60.7403 107.25 60.4434 107.043 60.2095C106.836 59.9711 106.546 59.7732 106.173 59.6158C105.804 59.4538 105.372 59.3099 104.878 59.1839L103.305 58.7791C102.167 58.4867 101.268 58.0437 100.607 57.4499C99.9499 56.8517 99.6215 56.0578 99.6215 55.0682C99.6215 54.254 99.8419 53.5411 100.283 52.9293C100.728 52.3176 101.333 51.843 102.098 51.5057C102.862 51.1638 103.728 50.9929 104.695 50.9929C105.676 50.9929 106.535 51.1638 107.273 51.5057C108.015 51.843 108.598 52.3131 109.02 52.9158C109.443 53.5141 109.661 54.2023 109.675 54.9805H107.266ZM112.095 65V51.1818H120.948V53.2802H114.599V57.0316H120.34V59.13H114.599V65H112.095ZM131.939 51.1818H134.442V60.2095C134.442 61.1991 134.208 62.0695 133.74 62.8207C133.277 63.5719 132.625 64.1589 131.784 64.5817C130.942 65 129.96 65.2092 128.835 65.2092C127.706 65.2092 126.721 65 125.88 64.5817C125.039 64.1589 124.386 63.5719 123.923 62.8207C123.46 62.0695 123.228 61.1991 123.228 60.2095V51.1818H125.731V60.0004C125.731 60.5761 125.857 61.0889 126.109 61.5387C126.366 61.9885 126.725 62.3416 127.189 62.598C127.652 62.8499 128.201 62.9759 128.835 62.9759C129.469 62.9759 130.018 62.8499 130.481 62.598C130.949 62.3416 131.309 61.9885 131.561 61.5387C131.813 61.0889 131.939 60.5761 131.939 60.0004V51.1818ZM137.163 65V51.1818H139.666V62.9016H145.752V65H137.163ZM21.3629 88V74.1818H26.5447C27.6063 74.1818 28.4969 74.3797 29.2166 74.7756C29.9408 75.1714 30.4873 75.7157 30.8562 76.4084C31.2295 77.0966 31.4162 77.8793 31.4162 78.7564C31.4162 79.6425 31.2295 80.4297 30.8562 81.1179C30.4828 81.8061 29.9318 82.3481 29.2031 82.744C28.4744 83.1353 27.5771 83.331 26.511 83.331H23.0767V81.2731H26.1737C26.7944 81.2731 27.3027 81.1651 27.6985 80.9492C28.0943 80.7333 28.3867 80.4364 28.5756 80.0586C28.7691 79.6808 28.8658 79.2467 28.8658 78.7564C28.8658 78.2661 28.7691 77.8343 28.5756 77.4609C28.3867 77.0876 28.0921 76.7975 27.6918 76.5906C27.2959 76.3791 26.7854 76.2734 26.1602 76.2734H23.8661V88H21.3629ZM33.5905 88V74.1818H38.7723C39.8338 74.1818 40.7245 74.3662 41.4442 74.7351C42.1684 75.1039 42.7149 75.6212 43.0837 76.2869C43.4571 76.9482 43.6437 77.7196 43.6437 78.6012C43.6437 79.4873 43.4548 80.2565 43.077 80.9087C42.7036 81.5565 42.1526 82.058 41.4239 82.4134C40.6952 82.7642 39.8001 82.9396 38.7385 82.9396H35.0479V80.8615H38.4012C39.0219 80.8615 39.5302 80.776 39.926 80.6051C40.3219 80.4297 40.6143 80.1755 40.8032 79.8427C40.9966 79.5053 41.0933 79.0915 41.0933 78.6012C41.0933 78.1109 40.9966 77.6926 40.8032 77.3462C40.6098 76.9954 40.3151 76.73 39.9193 76.5501C39.5235 76.3656 39.0129 76.2734 38.3877 76.2734H36.0937V88H33.5905ZM40.729 81.7386L44.1498 88H41.3564L37.9964 81.7386H40.729ZM58.2952 81.0909C58.2952 82.5798 58.0163 83.855 57.4585 84.9165C56.9053 85.9736 56.1496 86.7833 55.1915 87.3455C54.2379 87.9078 53.1561 88.1889 51.9461 88.1889C50.7361 88.1889 49.6521 87.9078 48.694 87.3455C47.7404 86.7788 46.9847 85.9669 46.4269 84.9098C45.8737 83.8482 45.597 82.5753 45.597 81.0909C45.597 79.602 45.8737 78.3291 46.4269 77.272C46.9847 76.2105 47.7404 75.3986 48.694 74.8363C49.6521 74.274 50.7361 73.9929 51.9461 73.9929C53.1561 73.9929 54.2379 74.274 55.1915 74.8363C56.1496 75.3986 56.9053 76.2105 57.4585 77.272C58.0163 78.3291 58.2952 79.602 58.2952 81.0909ZM55.7785 81.0909C55.7785 80.0429 55.6143 79.159 55.286 78.4393C54.9621 77.7151 54.5123 77.1686 53.9365 76.7997C53.3608 76.4264 52.6973 76.2397 51.9461 76.2397C51.1949 76.2397 50.5315 76.4264 49.9557 76.7997C49.3799 77.1686 48.9279 77.7151 48.5995 78.4393C48.2757 79.159 48.1137 80.0429 48.1137 81.0909C48.1137 82.139 48.2757 83.0251 48.5995 83.7493C48.9279 84.469 49.3799 85.0155 49.9557 85.3888C50.5315 85.7577 51.1949 85.9421 51.9461 85.9421C52.6973 85.9421 53.3608 85.7577 53.9365 85.3888C54.5123 85.0155 54.9621 84.469 55.286 83.7493C55.6143 83.0251 55.7785 82.139 55.7785 81.0909ZM66.1135 74.1818H68.5964V83.8977C68.5919 84.7884 68.403 85.5553 68.0297 86.1985C67.6563 86.8372 67.1345 87.3298 66.4643 87.6761C65.7986 88.018 65.0227 88.1889 64.1365 88.1889C63.3269 88.1889 62.5982 88.045 61.9505 87.7571C61.3072 87.4647 60.7967 87.0329 60.4189 86.4616C60.041 85.8904 59.8521 85.1797 59.8521 84.3295H62.3418C62.3463 84.7029 62.4273 85.0245 62.5847 85.2944C62.7466 85.5643 62.9693 85.7712 63.2527 85.9151C63.536 86.0591 63.8622 86.131 64.231 86.131C64.6313 86.131 64.9709 86.0478 65.2498 85.8814C65.5287 85.7105 65.7401 85.4586 65.8841 85.1257C66.0325 84.7929 66.109 84.3835 66.1135 83.8977V74.1818ZM71.3121 88V74.1818H80.2994V76.2802H73.8153V80.0316H79.8338V82.13H73.8153V85.9016H80.3533V88H71.3121ZM94.6809 78.8441H92.1575C92.0855 78.4303 91.9528 78.0637 91.7594 77.7443C91.566 77.4205 91.3253 77.1461 91.0375 76.9212C90.7496 76.6963 90.4212 76.5276 90.0524 76.4151C89.688 76.2982 89.2944 76.2397 88.8716 76.2397C88.1204 76.2397 87.4547 76.4286 86.8745 76.8065C86.2942 77.1798 85.8399 77.7286 85.5115 78.4528C85.1832 79.1725 85.019 80.0518 85.019 81.0909C85.019 82.148 85.1832 83.0386 85.5115 83.7628C85.8444 84.4825 86.2987 85.0268 86.8745 85.3956C87.4547 85.7599 88.1182 85.9421 88.8649 85.9421C89.2787 85.9421 89.6655 85.8881 90.0254 85.7802C90.3897 85.6677 90.7159 85.5036 91.0037 85.2876C91.2961 85.0717 91.5413 84.8063 91.7392 84.4915C91.9416 84.1766 92.081 83.8168 92.1575 83.4119L94.6809 83.4254C94.5865 84.0821 94.3818 84.6984 94.0669 85.2741C93.7566 85.8499 93.3495 86.3582 92.8457 86.799C92.3419 87.2353 91.7527 87.5772 91.0779 87.8246C90.4032 88.0675 89.6543 88.1889 88.8311 88.1889C87.6167 88.1889 86.5326 87.9078 85.579 87.3455C84.6254 86.7833 83.8742 85.9714 83.3255 84.9098C82.7767 83.8482 82.5023 82.5753 82.5023 81.0909C82.5023 79.602 82.7789 78.3291 83.3322 77.272C83.8855 76.2105 84.6389 75.3986 85.5925 74.8363C86.5461 74.274 87.6257 73.9929 88.8311 73.9929C89.6003 73.9929 90.3155 74.1009 90.9767 74.3168C91.638 74.5327 92.2272 74.8498 92.7445 75.2681C93.2618 75.6819 93.6868 76.1902 94.0197 76.793C94.3571 77.3912 94.5775 78.0749 94.6809 78.8441ZM96.366 76.2802V74.1818H107.391V76.2802H103.12V88H100.637V76.2802H96.366ZM117.026 77.9805C116.963 77.3912 116.697 76.9324 116.23 76.604C115.766 76.2757 115.164 76.1115 114.421 76.1115C113.9 76.1115 113.452 76.1902 113.079 76.3477C112.705 76.5051 112.42 76.7187 112.222 76.9886C112.024 77.2585 111.923 77.5666 111.918 77.913C111.918 78.2009 111.983 78.4505 112.114 78.6619C112.249 78.8733 112.431 79.0533 112.66 79.2017C112.89 79.3456 113.144 79.4671 113.423 79.5661C113.702 79.665 113.983 79.7482 114.266 79.8157L115.562 80.1396C116.083 80.261 116.585 80.4252 117.066 80.6321C117.552 80.839 117.986 81.0999 118.369 81.4148C118.755 81.7296 119.061 82.1097 119.286 82.555C119.511 83.0004 119.623 83.5221 119.623 84.1204C119.623 84.93 119.417 85.643 119.003 86.2592C118.589 86.871 117.991 87.35 117.208 87.6964C116.43 88.0382 115.487 88.2092 114.381 88.2092C113.306 88.2092 112.373 88.0427 111.581 87.7099C110.794 87.377 110.177 86.8912 109.732 86.2525C109.291 85.6138 109.053 84.8356 109.017 83.918H111.48C111.516 84.3993 111.664 84.7996 111.925 85.119C112.186 85.4383 112.525 85.6767 112.944 85.8342C113.367 85.9916 113.839 86.0703 114.361 86.0703C114.905 86.0703 115.382 85.9893 115.791 85.8274C116.205 85.661 116.529 85.4316 116.763 85.1392C116.997 84.8423 117.116 84.496 117.12 84.1001C117.116 83.7403 117.01 83.4434 116.803 83.2095C116.596 82.9711 116.306 82.7732 115.933 82.6158C115.564 82.4538 115.132 82.3099 114.637 82.1839L113.065 81.7791C111.927 81.4867 111.028 81.0437 110.366 80.4499C109.71 79.8517 109.381 79.0578 109.381 78.0682C109.381 77.254 109.602 76.5411 110.043 75.9293C110.488 75.3176 111.093 74.843 111.858 74.5057C112.622 74.1638 113.488 73.9929 114.455 73.9929C115.436 73.9929 116.295 74.1638 117.033 74.5057C117.775 74.843 118.357 75.3131 118.78 75.9158C119.203 76.5141 119.421 77.2023 119.435 77.9805H117.026Z" fill="#1E1E1E"/>
<path d="M99.356 205.912V193.284H101.708V205.912H99.356ZM94.596 200.76V198.464H106.468V200.76H94.596Z" fill="#1E1E1E"/>
<path d="M26.678 241C27.07 236.24 28.204 231.564 30.08 226.972C31.956 222.38 34.616 217.844 38.06 213.364L38.186 214.414H21.008V210.76H42.05V213.994C39.922 217.074 38.13 220.098 36.674 223.066C35.218 226.006 34.07 228.946 33.23 231.886C32.418 234.826 31.886 237.864 31.634 241H26.678ZM56.0143 241.42C53.5783 241.42 51.4363 240.762 49.5883 239.446C47.7403 238.102 46.2983 236.254 45.2623 233.902C44.2263 231.522 43.7083 228.806 43.7083 225.754C43.7083 222.702 44.2263 220.028 45.2623 217.732C46.2983 215.408 47.7403 213.602 49.5883 212.314C51.4363 210.998 53.5783 210.34 56.0143 210.34C58.4503 210.34 60.5783 210.998 62.3983 212.314C64.2463 213.602 65.6883 215.408 66.7243 217.732C67.7603 220.028 68.2783 222.702 68.2783 225.754C68.2783 228.834 67.7603 231.55 66.7243 233.902C65.6883 236.254 64.2463 238.102 62.3983 239.446C60.5503 240.762 58.4223 241.42 56.0143 241.42ZM56.0143 237.598C57.6103 237.598 58.9683 237.108 60.0883 236.128C61.2083 235.12 62.0483 233.734 62.6083 231.97C63.1963 230.178 63.4903 228.092 63.4903 225.712C63.4903 223.36 63.1963 221.316 62.6083 219.58C62.0483 217.844 61.2083 216.514 60.0883 215.59C58.9963 214.638 57.6383 214.162 56.0143 214.162C54.3623 214.162 52.9763 214.638 51.8563 215.59C50.7643 216.542 49.9243 217.886 49.3363 219.622C48.7763 221.33 48.4963 223.36 48.4963 225.712C48.4963 228.092 48.7903 230.178 49.3783 231.97C49.9663 233.762 50.8063 235.148 51.8983 236.128C53.0183 237.108 54.3903 237.598 56.0143 237.598ZM84.7663 241.42C82.3303 241.42 80.1883 240.762 78.3403 239.446C76.4923 238.102 75.0503 236.254 74.0143 233.902C72.9783 231.522 72.4603 228.806 72.4603 225.754C72.4603 222.702 72.9783 220.028 74.0143 217.732C75.0503 215.408 76.4923 213.602 78.3403 212.314C80.1883 210.998 82.3303 210.34 84.7663 210.34C87.2023 210.34 89.3303 210.998 91.1503 212.314C92.9983 213.602 94.4403 215.408 95.4763 217.732C96.5123 220.028 97.0303 222.702 97.0303 225.754C97.0303 228.834 96.5123 231.55 95.4763 233.902C94.4403 236.254 92.9983 238.102 91.1503 239.446C89.3023 240.762 87.1743 241.42 84.7663 241.42ZM84.7663 237.598C86.3623 237.598 87.7203 237.108 88.8403 236.128C89.9603 235.12 90.8003 233.734 91.3603 231.97C91.9483 230.178 92.2423 228.092 92.2423 225.712C92.2423 223.36 91.9483 221.316 91.3603 219.58C90.8003 217.844 89.9603 216.514 88.8403 215.59C87.7483 214.638 86.3903 214.162 84.7663 214.162C83.1143 214.162 81.7283 214.638 80.6083 215.59C79.5163 216.542 78.6763 217.886 78.0883 219.622C77.5283 221.33 77.2483 223.36 77.2483 225.712C77.2483 228.092 77.5423 230.178 78.1303 231.97C78.7183 233.762 79.5583 235.148 80.6503 236.128C81.7703 237.108 83.1423 237.598 84.7663 237.598Z" fill="#1E1E1E"/>
</svg>
